 http://img195.imageshack.us/img195/2567/changeup.jpg


Verenigde Staten
Komedie
112 minuten

geregisseerd door David Dobkin
met Olivia Wilde, Ryan Reynolds en Jason Bateman

Mitch en Dave groeiden samen op en waren de beste vrienden. Maar als de jaren voorbij gaan groeiden ze langzaam uit elkaar. Terwijl Dave een overwerkte advocaat is, echtgenoot en vader van drie kinderen, is Mitch single gebleven. In Mitch zijn ogen heeft Dave het allemaal: een knappe vrouw, kinderen die hem lief hebben en een goede baan bij een prestigieus advocatenkantoor. Dave droomt echter van het stressloze leven van Mitch zonder verplichtingen. Na een avondje stappen staat de wereld van beide echter op hun kop wanneer ze wakker worden in elkaars lichaam.


Vertaald door Simply Release Toppers
Tokke & Suurtje 





Screenshots:
 
http://img405.imageshack.us/img405/8869/screenshot1mfq.jpg
 
http://img46.imageshack.us/img46/7953/screenshot2hy.jpg
 
http://img442.imageshack.us/img442/2043/screenshot3qv.jpg
 
http://img510.imageshack.us/img510/1218/screenshot4d.jpg





INFO;

Video
ID                                       : 0
Format                                   : MPEG-4 Visual
Format profile                           : Advanced Simple@L5
Format settings, BVOP                    : 1
Format settings, QPel                    : No
Format settings, GMC                     : No warppoints
Format settings, Matrix                  : Custom
Codec ID                                 : XVID
Codec ID/Hint                            : XviD
Duration                                 : 1h 58mn
Bit rate                                 : 704 Kbps
Width                                    : 608 pixels
Height                                   : 256 pixels
Display aspect ratio                     : 2.40:1
Frame rate                               : 23.976 fps
Color space                              : YUV
Chroma subsampling                       : 4:2:0
Bit depth                                : 8 bits
Scan type                                : Progressive
Compression mode                         : Lossy
Bits/(Pixel*Frame)                       : 0.189
Stream size                              : 595 MiB (85%)
Writing library                          : XviD 64

Audio
ID                                       : 1
Format                                   : MPEG Audio
Format version                           : Version 1
Format profile                           : Layer 3
Mode                                     : Joint stereo
Mode extension                           : MS Stereo
Codec ID                                 : 55
Codec ID/Hint                            : MP3
Duration                                 : 1h 58mn
Bit rate mode                            : Variable
Bit rate                                 : 111 Kbps
Nominal bit rate                         : 128 Kbps
Channel(s)                               : 2 channels
Sampling rate                            : 48.0 KHz
Compression mode                         : Lossy
Stream size                              : 94.2 MiB (13%)
Alignment                                : Aligned on interleaves
Interleave, duration                     : 24 ms (0.58 video frame)
Interleave, preload duration             : 165 ms



 
http://www.imdb.com/title/tt1488555/ 
http://www.moviemeter.nl/film/73578



Deze film wordt u aangeboden door het DutchReleaseTeam.
Voor de reviews van de nieuwste films, muziek, series, games etc
ga dan eens naar http://www.hetmultimediacafe.be

DutchReleaseteam = Hardcoded Dutch Subs